<?xml version="1.0" encoding="utf-8"?>
<svg width="100" height="100" viewBox="0 0 100 100" fill="none" xmlns="http://www.w3.org/2000/svg">
<g clip-path="url(#clip0_1815_53827)">
<path fill-rule="evenodd" clip-rule="evenodd" d="M93.9979 49.9999L99.4459 39.9939C100.604 37.8669 99.8909 35.2049 97.8239 33.9419L88.1029 28.0009L87.8189 16.6119C87.7579 14.1899 85.8099 12.2419 83.3879 12.1809L71.9989 11.8969L66.0579 2.17593C64.7949 0.10893 62.1329 -0.60407 60.0059 0.55393L49.9999 6.00193L39.9939 0.55393C37.8669 -0.60407 35.2049 0.10893 33.9419 2.17593L28.0009 11.8969L16.6119 12.1809C14.1899 12.2419 12.2419 14.1899 12.1819 16.6119L11.8969 28.0009L2.17593 33.9419C0.10893 35.2049 -0.60407 37.8669 0.55393 39.9939L6.00193 49.9999L0.55393 60.0059C-0.60407 62.1329 0.10893 64.7949 2.17593 66.0579L11.8969 71.9989L12.1809 83.3879C12.2419 85.8089 14.1899 87.7579 16.6119 87.8179L28.0009 88.1029L33.9419 97.8239C35.2049 99.8909 37.8669 100.604 39.9939 99.4459L49.9999 93.9979L60.0059 99.4459C62.1329 100.604 64.7949 99.8909 66.0579 97.8239L71.9989 88.1029L83.3879 87.8179C85.8099 87.7579 87.7579 85.8089 87.8189 83.3879L88.1029 71.9989L97.8239 66.0579C99.8909 64.7949 100.604 62.1329 99.4459 60.0059L93.9979 49.9999ZM71.0919 42.1279L70.7879 42.3809C62.1289 49.5969 54.1429 57.5839 46.9269 66.2419L46.6739 66.5459C45.8569 67.5269 44.6639 68.1189 43.3879 68.1769C42.1119 68.2349 40.8709 67.7529 39.9679 66.8499L28.6039 55.4869C26.8289 53.7119 26.8289 50.8329 28.6039 49.0589C30.3799 47.2839 33.2569 47.2839 35.0329 49.0589L42.9149 56.9409C49.6859 49.1919 57.0589 41.9879 64.9679 35.3979L65.2719 35.1449C67.1999 33.5379 70.0669 33.7979 71.6729 35.7269C73.2809 37.6549 73.0199 40.5209 71.0919 42.1279Z" fill="#3897F0"/>
<path fill-rule="evenodd" clip-rule="evenodd" d="M71.0919 42.1279L70.7879 42.3809C62.1289 49.5969 54.1429 57.5839 46.9269 66.2419L46.6739 66.5459C45.8569 67.5269 44.6639 68.1189 43.3879 68.1769C42.1119 68.2349 40.8709 67.7529 39.9679 66.8499L28.6039 55.4869C26.8289 53.7119 26.8289 50.8329 28.6039 49.0589C30.3799 47.2839 33.2569 47.2839 35.0329 49.0589L42.9149 56.9409C49.6859 49.1919 57.0589 41.9879 64.9679 35.3979L65.2719 35.1449C67.1999 33.5379 70.0669 33.7979 71.6729 35.7269C73.2809 37.6549 73.0199 40.5209 71.0919 42.1279Z" fill="white"/>
</g>
<defs>
<clipPath id="clip0_1815_53827">
<rect width="100" height="100" fill="white"/>
</clipPath>
</defs>
</svg>
